<svg width="207" height="64" viewBox="0 0 207 64" fill="none" xmlns="http://www.w3.org/2000/svg">
<path d="M0 14.5626C0 6.5867 6.46573 0.120972 14.4416 0.120972H192.074C200.049 0.120972 206.515 6.58671 206.515 14.5626V48.9363C206.515 56.9122 200.049 63.3779 192.074 63.3779H14.4416C6.46573 63.3779 0 56.9122 0 48.9363V14.5626Z" fill="#373535"/>
<path d="M77.3194 42.9479L80.5139 42.5435V18.3624L77.4811 17.7963V15.3297H83.3444C83.8566 15.3297 84.4227 15.3162 85.0428 15.2893C85.6628 15.2623 86.1345 15.2354 86.458 15.2084C87.8598 15.1006 89.019 15.0466 89.9356 15.0466C92.7122 15.0466 94.9362 15.3297 96.6076 15.8958C98.279 16.4619 99.4921 17.3246 100.247 18.4838C101.002 19.6429 101.379 21.166 101.379 23.0531C101.379 24.9132 100.88 26.6385 99.883 28.229C98.8855 29.8195 97.4433 30.9112 95.5563 31.5043C96.6346 31.9626 97.5916 32.7983 98.4273 34.0114C99.2629 35.2245 100.153 36.8015 101.096 38.7425C101.77 40.0634 102.282 41.0204 102.633 41.6134C103.01 42.1796 103.374 42.5031 103.724 42.5839L105.059 42.9883V45.374H98.1846C97.7533 45.374 97.295 44.9427 96.8098 44.0801C96.3515 43.1905 95.745 41.8022 94.9902 39.9151C94.1005 37.7046 93.3322 35.9793 92.6853 34.7392C92.0383 33.4992 91.3509 32.7309 90.623 32.4344H86.458V42.5435L90.1782 42.9479V45.374H77.3194V42.9479ZM90.1782 29.9677C91.7148 29.9677 92.9144 29.4151 93.7771 28.3098C94.6397 27.2046 95.071 25.5467 95.071 23.3361C95.071 21.3682 94.6397 19.9125 93.7771 18.969C92.9414 18.0255 91.4856 17.5537 89.4099 17.5537C88.6551 17.5537 88.0081 17.5941 87.469 17.675C86.9568 17.7289 86.6198 17.7559 86.458 17.7559V29.8869C86.7815 29.9408 87.5633 29.9677 88.8034 29.9677H90.1782Z" fill="#F8F9F4"/>
<path d="M110.304 55.4427C109.818 55.4427 109.293 55.4023 108.727 55.3214C108.187 55.2406 107.797 55.1462 107.554 55.0384V50.7117C107.743 50.8195 108.12 50.9273 108.686 51.0352C109.252 51.143 109.764 51.1969 110.223 51.1969C111.571 51.1969 112.676 50.7521 113.539 49.8625C114.428 48.9729 115.25 47.4767 116.005 45.374H113.822L106.219 25.7623L104.4 25.2367V22.8913H115.52V25.2367L112.568 25.7219L116.167 36.9228L117.623 41.6943L118.876 36.9228L122.192 25.7219L119.644 25.2367V22.8913H128.419V25.2367L126.438 25.7219C124.955 30.2508 123.486 34.6179 122.03 38.8233C120.574 43.0287 119.725 45.3875 119.483 45.8997C118.62 48.1642 117.798 49.9703 117.016 51.3182C116.234 52.6661 115.304 53.6905 114.226 54.3914C113.148 55.0923 111.84 55.4427 110.304 55.4427Z" fill="#F8F9F4"/>
<path d="M132.675 26.0454H129.278V23.7809L132.675 22.9722V21.193C132.675 19.4407 133.133 17.8368 134.05 16.3811C134.993 14.9253 136.247 13.7796 137.81 12.9439C139.374 12.0813 141.032 11.65 142.784 11.65C143.7 11.65 144.563 11.7848 145.372 12.0543V17.2302C145.102 16.9606 144.563 16.6911 143.754 16.4215C142.973 16.1519 142.15 16.0171 141.288 16.0171C140.236 16.0171 139.482 16.2867 139.023 16.8259C138.592 17.3381 138.376 18.2277 138.376 19.4947V22.9318H143.512V26.0454H138.376V42.6244L142.622 42.9479V45.374H129.48V42.9479L132.675 42.5839V26.0454Z" fill="#F8F9F4"/>
<path d="M156.581 45.8188C153.023 45.8188 150.367 44.781 148.615 42.7052C146.89 40.6025 146.027 37.745 146.027 34.1327C146.027 31.7065 146.472 29.6038 147.361 27.8246C148.278 26.0454 149.559 24.684 151.203 23.7405C152.847 22.797 154.748 22.3252 156.904 22.3252C159.6 22.3252 161.676 23.0396 163.132 24.4684C164.587 25.8702 165.342 27.8785 165.396 30.4934C165.396 32.2726 165.288 33.5935 165.073 34.4562H151.931C152.039 36.9093 152.618 38.8233 153.67 40.1982C154.721 41.5461 156.217 42.22 158.158 42.22C159.209 42.22 160.288 42.0448 161.393 41.6943C162.525 41.3439 163.415 40.926 164.062 40.4408L165.073 42.6648C164.345 43.4466 163.159 44.1744 161.514 44.8484C159.897 45.4954 158.252 45.8188 156.581 45.8188ZM159.735 32.03C159.789 31.2752 159.816 30.6956 159.816 30.2912C159.816 26.7058 158.616 24.9132 156.217 24.9132C154.896 24.9132 153.872 25.4388 153.144 26.4902C152.416 27.5415 152.012 29.3881 151.931 32.03H159.735Z" fill="#F8F9F4"/>
<path d="M168.623 42.9883L171.292 42.6648V26.7328L168.704 26.0049V23.2148L174.972 22.3657H175.093L176.104 23.1744V24.064L175.983 27.3394H176.104C176.293 26.8002 176.737 26.1397 177.438 25.358C178.139 24.5492 179.015 23.8483 180.067 23.2553C181.145 22.6352 182.304 22.3252 183.544 22.3252C184.137 22.3252 184.65 22.4061 185.081 22.5678V28.6333C184.272 28.0672 183.288 27.7842 182.129 27.7842C180.161 27.7842 178.449 28.3098 176.994 29.3612V42.6244L181.684 42.9883V45.374H168.623V42.9883Z" fill="#F8F9F4"/>
<path d="M50.4946 39.1657L52.0199 38.6449V37.0824L51.5115 34.9991H54.5623V32.9159L53.5453 30.3117L55.0707 29.7909V28.2285L51.5115 24.0619L49.9861 22.4994L50.4946 20.937L51.003 18.8537L51.5115 15.7287L51.003 11.5622C51.003 11.5622 50.697 9.16537 50.4946 8.95805C50.2921 8.75072 49.9861 7.39558 49.4776 7.39558C48.9692 7.39558 45.4099 9.47887 45.4099 9.47887C45.4099 9.47887 41.3422 12.6038 39.8168 12.6038C38.2914 12.6038 36.2575 12.083 35.7491 12.083H31.1729C30.6644 12.083 26.5967 12.6038 25.0713 12.6038C23.5459 12.6038 18.9697 8.95805 18.9697 8.95805C18.9697 8.95805 16.9358 7.39558 15.9189 7.39558C14.902 7.39558 14.3935 8.95805 14.3935 9.47887V11.0413C14.3935 11.5622 13.885 14.1663 13.885 14.6871C13.885 15.2079 14.3935 19.3745 14.3935 19.8953C14.3935 20.4161 14.902 21.9786 14.902 23.0202C14.902 24.0619 11.8512 26.666 11.3427 27.1868C10.8343 27.7076 10.3258 28.7493 10.3258 29.2701C10.3258 29.7909 12.3597 29.7909 12.3597 30.3117C12.3597 30.8326 11.8512 31.8742 11.3427 32.9159C10.8343 33.9575 10.8343 33.9575 10.8343 34.4783C10.8343 34.9991 11.8512 34.4783 12.3597 34.4783C12.8681 34.4783 14.3935 34.4783 14.3935 34.9991C14.3935 35.52 13.3766 37.0824 13.3766 37.6033C13.3766 38.1241 13.3766 38.1241 13.885 38.6449C14.3935 39.1657 15.4104 38.6449 15.9189 38.6449C16.4274 38.6449 18.9697 39.6865 18.9697 39.6865C18.9697 39.6865 22.0205 40.2074 23.0374 42.2907C24.0544 44.3739 24.0544 47.4989 24.0544 47.4989C24.0544 47.4989 25.0713 51.6655 26.0882 53.2279C27.1051 54.7904 29.6475 55.832 30.1559 55.832H35.2406C36.766 55.832 39.3083 53.7487 39.8168 52.7071C40.3252 51.6655 40.8337 50.103 41.3422 49.0613C41.8506 48.0197 41.8506 46.775 41.8506 45.4156C41.8506 44.0563 42.3591 42.8115 42.3591 42.8115C42.3591 42.8115 42.3591 41.7698 43.376 40.7282C44.393 39.6865 46.9353 39.6865 46.9353 39.6865L50.4946 39.1657Z" fill="white"/>
<path d="M19.4781 31.3534L16.4273 36.0408L21.0035 37.6032L23.5458 39.1657L25.5797 41.249L26.0882 45.4156L26.5966 49.0613L28.122 51.6654L30.1559 53.2279H33.7151L36.2575 52.1862L38.2913 50.6238L38.7998 49.0613L39.8167 43.8531V41.7698L41.3421 39.6865L42.8675 38.6449L45.9183 37.0824L48.9691 36.0408L48.4606 35.5199L47.4437 33.4366L45.9183 31.3534L43.8844 29.7909L40.8337 28.2284L37.2744 29.2701L34.7321 32.395L33.7151 35.5199H31.6813L30.6644 32.395L28.6305 29.7909L26.0882 28.2284L23.0374 28.7493L19.4781 31.3534Z" fill="#373535"/>
<path d="M30.6085 48.0496C30.1001 48.0496 28.0662 48.5705 28.0662 49.0913C28.0662 49.6121 28.5747 50.6538 28.5747 50.6538C28.5747 50.6538 29.5916 52.2162 30.1001 52.2162H33.6593C33.919 52.2162 34.5358 52.0306 35.1847 51.6954C35.8066 51.3742 36.4613 50.9086 36.7101 50.6538C37.2186 50.1329 37.2186 49.6121 37.2186 49.0913C37.2186 48.5705 34.2236 48.0196 33.7152 48.0196C33.2067 48.0196 31.117 48.0496 30.6085 48.0496Z" fill="white"/>
<path d="M26.5966 34.4784L24.0543 33.4367L25.5797 34.9992C26.0882 35.52 26.5966 36.5617 27.1051 37.0825C27.6136 37.6033 28.122 38.6449 28.6305 38.6449C29.139 38.6449 28.6305 36.5617 28.6305 36.0408C28.6305 35.52 26.5966 34.4784 26.5966 34.4784Z" fill="white"/>
<path d="M37.5858 36.4472L36.5689 39.0513L38.0943 37.4888C38.6028 36.968 39.6197 36.4472 40.1282 35.9263C40.6366 35.4055 41.6536 34.8847 41.6536 34.3639C41.6536 33.8431 39.6197 34.3639 39.1112 34.3639C38.6028 34.3639 37.5858 36.4472 37.5858 36.4472Z" fill="white"/>
<path d="M48.9691 15.2078C48.9691 14.1661 48.9691 12.0829 48.4607 12.0829C47.9522 12.0829 46.4268 14.687 46.4268 14.687C46.4268 14.687 44.9014 17.2911 44.9014 17.8119C44.9014 18.3327 47.9522 20.416 48.4607 20.416C48.9691 20.416 48.9691 19.3744 48.9691 18.3327V15.2078Z" fill="#373535"/>
<path d="M17.3885 14.1965C17.3885 13.6757 17.3885 12.1132 17.8969 12.1132C18.4054 12.1132 18.4054 12.634 18.9139 13.1548C19.4223 13.6757 20.4392 15.7589 20.4392 15.7589C20.4392 15.7589 20.9477 16.8006 20.9477 17.3214C20.9477 17.8422 18.9139 20.4463 18.4054 20.4463C17.8969 20.4463 17.3885 18.3631 17.3885 17.8422V14.1965Z" fill="#373535"/>
</svg>
